<svg width="24" height="24" viewBox="0 0 24 24" fill="none" xmlns="http://www.w3.org/2000/svg">
<path d="M4.39272 17.6143L10.0071 11.9999L4.42181 6.41465C4.29049 6.29128 4.18544 6.14266 4.11296 5.9777C4.04048 5.81274 4.00206 5.63484 4 5.45468C4 5.06892 4.15324 4.69896 4.42601 4.42619C4.69879 4.15342 5.06874 4.00017 5.4545 4.00017C5.63283 3.99678 5.80996 4.02987 5.97504 4.0974C6.14012 4.16493 6.28966 4.26549 6.41447 4.39289L11.9998 10.0509L17.6578 4.39289C17.8923 4.15317 18.2099 4.0126 18.545 4.00017C18.9308 4.00017 19.3007 4.15342 19.5735 4.42619C19.8463 4.69896 19.9995 5.06892 19.9995 5.45468C20.0072 5.64005 19.9763 5.82499 19.9087 5.99776C19.8411 6.17054 19.7383 6.32736 19.6068 6.45828L13.9924 11.9999L19.5923 17.5998C19.7192 17.7227 19.8205 17.8695 19.8904 18.0318C19.9603 18.194 19.9974 18.3685 19.9995 18.5452C19.9995 18.931 19.8463 19.3009 19.5735 19.5737C19.3007 19.8465 18.9308 19.9997 18.545 19.9997C18.3667 20.0031 18.1896 19.97 18.0245 19.9025C17.8594 19.8349 17.7099 19.7344 17.5851 19.607L11.9998 13.949L6.34175 19.607C6.10722 19.8467 5.78964 19.9873 5.4545 19.9997C5.06874 19.9997 4.69879 19.8465 4.42601 19.5737C4.15324 19.3009 4 18.931 4 18.5452C4.00436 18.1961 4.14545 17.8616 4.39272 17.6143Z" fill="#02CDBE"/>
</svg>
